<svg xmlns="http://www.w3.org/2000/svg" xmlns:xlink="http://www.w3.org/1999/xlink" version="1.1" id="Your_Icon" x="0px" y="0px" width="100px" height="100px" viewBox="5.0 -10.0 100.0 135.0" enable-background="new 0 0 100 100" xml:space="preserve">
<g>
	<g>
		<g>
			<g>
			</g>
		</g>
		<g>
		</g>
	</g>
</g>
<path d="M88.432,43.419c-1.916-2.889-5.02-5.732-8.742-8.004c-2.276-1.39-4.67-2.473-6.981-3.199  c-4.515-7.874-13-13.194-22.709-13.194s-18.194,5.32-22.709,13.194c-2.311,0.726-4.705,1.809-6.981,3.199  c-3.722,2.272-6.826,5.115-8.742,8.004c-2.21,3.335-2.646,6.452-1.225,8.778c1.23,2.016,3.612,3.029,6.671,3.029  c2.378,0,5.168-0.621,8.141-1.852c0.417,1.257,0.923,2.49,1.538,3.69c0.017,0.033,0.035,0.065,0.054,0.098l8.824,15.08  c2.823,5.39,8.347,8.735,14.429,8.735s11.606-3.346,14.429-8.735l8.824-15.08c0.019-0.032,0.037-0.064,0.054-0.098  c0.615-1.199,1.12-2.432,1.538-3.69c2.973,1.23,5.763,1.852,8.141,1.852c3.059,0,5.441-1.014,6.671-3.029  C91.077,49.871,90.642,46.754,88.432,43.419z M24.186,49.445c-5.159,2.253-9.486,2.213-10.428,0.669  c-0.541-0.885-0.102-2.604,1.145-4.484c1.576-2.376,4.306-4.855,7.492-6.8c0.861-0.525,1.739-0.987,2.618-1.411  c-0.765,2.456-1.178,5.065-1.178,7.769C23.835,46.631,23.958,48.05,24.186,49.445z M69.772,55.191l-8.819,15.073  c-0.017,0.028-0.033,0.058-0.048,0.087C58.78,74.438,54.602,76.978,50,76.978s-8.78-2.539-10.904-6.626  c-0.015-0.029-0.031-0.059-0.048-0.087l-8.819-15.073c-1.588-3.116-2.393-6.482-2.393-10.004c0-12.222,9.943-22.165,22.165-22.165  s22.165,9.943,22.165,22.165C72.165,48.709,71.36,52.075,69.772,55.191z M86.243,50.113c-0.943,1.544-5.269,1.584-10.428-0.669  c0.228-1.395,0.351-2.814,0.351-4.257c0-2.704-0.412-5.314-1.178-7.769c0.88,0.424,1.758,0.886,2.618,1.411  c3.186,1.945,5.916,4.423,7.492,6.8C86.344,47.51,86.783,49.228,86.243,50.113z"/>
<text x="0.0" y="117.5" font-size="5.0" font-weight="bold" font-family="Helvetica Neue, Helvetica, Arial-Unicode, Arial, Sans-serif" fill="#000000">Created by Fabien Jouin</text><text x="0.0" y="122.5" font-size="5.0" font-weight="bold" font-family="Helvetica Neue, Helvetica, Arial-Unicode, Arial, Sans-serif" fill="#000000">from the Noun Project</text></svg>