<svg xmlns="http://www.w3.org/2000/svg" xmlns:xlink="http://www.w3.org/1999/xlink" version="1.1" id="Layer_1" x="0px" y="0px" width="100px" height="100px" viewBox="5.0 -10.0 100.0 135.0" enable-background="new 0 0 100 100" xml:space="preserve">
<g>
	<path d="M93.891,43.121c-2.791-2.743-7.18-4.637-13.045-5.628c-0.463-0.101-0.948-0.176-1.478-0.229   c-0.838-0.113-1.72-0.208-2.626-0.284c-6.441-0.835-7.78-2.106-9.187-4.086c-2.27-4.013-6.707-7.037-13.195-8.992   c-5.068-1.523-11.417-2.362-17.88-2.362h-0.004c-15.092,0-32.716,4.602-32.716,17.572v8.152c0,4.353,2.233,12.194,17.177,15.844   c9.028,2.396,32.495,6.869,33.49,7.059v-0.001l0.099,0.02c0.02,0.003,0.053,0.01,0.071,0.013   c8.735,1.449,16.093,2.185,21.868,2.185c5.416,0,9.611-0.628,12.825-1.92c5.155-2.075,8.111-6.125,8.111-11.11v-8.153   C97.402,49.088,96.794,45.975,93.891,43.121z M93.401,59.351c0,2.345-0.974,5.535-5.604,7.399   c-2.729,1.097-6.436,1.631-11.333,1.631c-5.556,0-12.693-0.717-21.213-2.131c-0.032-0.006-0.044-0.008-0.077-0.015   c-2.494-0.475-24.622-4.714-33.226-6.999c-0.003-0.001-0.006-0.002-0.01-0.003C12.794,57.012,7.76,52.762,7.76,47.263v-8.152   c0-9.375,14.423-13.572,28.716-13.572h0.004c6.087,0,12.026,0.779,16.726,2.192c5.562,1.676,9.246,4.126,10.955,7.289   c2.281,3.258,4.723,4.985,12.162,5.938c0.906,0.074,1.773,0.168,2.579,0.278c0.43,0.041,0.817,0.101,1.177,0.183   c11.589,1.932,13.323,6.953,13.322,9.777V59.351z"/>
	<g>
		<path d="M78.131,44.172c-0.262-0.064-0.574-0.114-0.949-0.149c-0.799-0.111-1.614-0.197-2.442-0.264    c-7.968-1.016-10.78-3.094-13.304-6.743l-0.005,0.001c-5.873-11.537-49.794-10.649-49.794,2.669c0,4.501,5.019,7.581,11.887,9.243    l-0.002,0c8.544,2.276,31.642,6.68,31.654,6.682c16.502,2.747,33.872,3.813,33.872-4.335    C89.048,47.548,84.237,45.181,78.131,44.172z M58.47,47.648c-0.321,0.765-1.062,1.227-1.846,1.227    c-0.246,0-0.496-0.046-0.739-0.143l-12.661-5.041c-7.087-2.289-13.789-3.151-22.434-1.782c-1.083,0.175-2.105-0.562-2.286-1.646    s0.546-2.11,1.628-2.299l10.247-1.793l14.651-2.884c0.901-0.177,1.801,0.279,2.193,1.105c0.393,0.827,0.174,1.814-0.531,2.397    c-0.691,0.584-1.594,1.77-1.474,2.463c0.062,0.355,0.461,0.75,1.112,1.125c0.434,0.202,0.891,0.412,1.384,0.635    c0.005,0.002,0.009,0.006,0.015,0.008c3.062,1.142,6.24,2.497,9.702,4.023C58.43,45.485,58.891,46.643,58.47,47.648z"/>
	</g>
</g>
<text x="0.0" y="117.5" font-size="5.0" font-weight="bold" font-family="Helvetica Neue, Helvetica, Arial-Unicode, Arial, Sans-serif" fill="#000000">Created by Tom Glass, Jr.</text><text x="0.0" y="122.5" font-size="5.0" font-weight="bold" font-family="Helvetica Neue, Helvetica, Arial-Unicode, Arial, Sans-serif" fill="#000000">from the Noun Project</text></svg>