<svg xmlns="http://www.w3.org/2000/svg" xmlns:xlink="http://www.w3.org/1999/xlink" version="1.1" id="Layer_1" x="0px" y="0px" viewBox="5.0 -10.0 100.0 135.0" enable-background="new 0 0 100 100" xml:space="preserve" height="100px" width="100px">
<g>
	<path d="M94.973,5.091l0-0.019L5.246,30.598L5,30.57v42.087l0.15,0.37c0.28,0.688,7.353,16.915,50.367,21.785l1.08,0.122L95,49.664   V5.067L94.973,5.091z M86.085,11.868l-31.22,38.708C24.37,46.924,14.044,37.321,10.953,33.211L86.085,11.868z M9.074,71.775V37.333   c4.853,5.339,16.741,13.74,44.641,17.195v35.956C18.595,86.039,10.226,73.798,9.074,71.775z M57.788,87.231V53.442l33.138-41.087   v35.813L57.788,87.231z"/>
	<ellipse cx="47.858" cy="41.051" rx="7.214" ry="2.546"/>
	<ellipse cx="28.169" cy="34.262" rx="4.328" ry="1.528"/>
	<ellipse cx="55.497" cy="27.868" rx="5.347" ry="1.887"/>
	<ellipse cx="64.577" cy="58.194" rx="2.716" ry="6.45"/>
	<ellipse cx="73.517" cy="58.986" rx="2.144" ry="5.092"/>
	<ellipse cx="86.643" cy="40.372" rx="2.144" ry="5.092"/>
	<ellipse cx="77.308" cy="40.881" rx="3.359" ry="7.978"/>
	<ellipse cx="41.833" cy="76.441" rx="5.432" ry="5.516"/>
	<ellipse cx="29.103" cy="59.213" rx="4.837" ry="5.516"/>
	<ellipse cx="14.335" cy="63.032" rx="3.225" ry="5.856"/>
</g>
<text x="0.0" y="117.5" font-size="5.0" font-weight="bold" font-family="Helvetica Neue, Helvetica, Arial-Unicode, Arial, Sans-serif" fill="#000000">Created by Nathan Thomson</text><text x="0.0" y="122.5" font-size="5.0" font-weight="bold" font-family="Helvetica Neue, Helvetica, Arial-Unicode, Arial, Sans-serif" fill="#000000">from the Noun Project</text></svg>