<svg xmlns="http://www.w3.org/2000/svg" xmlns:xlink="http://www.w3.org/1999/xlink" version="1.1" id="Layer_1" x="0px" y="0px" viewBox="5.0 -10.0 100.0 135.0" enable-background="new 0 0 100 100" xml:space="preserve" height="100px" width="100px">
<path fill="none" d="M80.5,35.3l-0.6-0.3l-0.5-0.5C73.9,28.5,65.7,25,56.9,25c-1.6,0-3.2,0.1-5,0.4l-0.7,0.1l-0.7-0.2  c-3.7-1.1-7.6-1.7-11.5-1.7C21.4,23.6,7,35,7,49.1c0,14,14.4,25.5,32,25.5c2.9,0,5.8-0.3,8.7-1l0.7-0.2l0.7,0.2c2.6,0.6,5.2,1,7.8,1  c2.2,0,4.4-0.2,6.6-0.7l1.1-0.2l1,0.6c2.7,1.5,5.5,2.3,8.5,2.3c10.4,0,18.9-9.5,18.9-21.2C93,46.4,88,38.4,80.5,35.3z M15.9,54.1  c-1.2,0-2.1-0.6-2.1-1.3c0-0.7,0.9-1.3,2.1-1.3S18,52,18,52.8C18,53.5,17.1,54.1,15.9,54.1z M20.8,62.6c-1.2,0-2.1-0.6-2.1-1.3  c0-0.7,0.9-1.3,2.1-1.3c1.2,0,2.1,0.6,2.1,1.3C22.9,62.1,22,62.6,20.8,62.6z M25.8,48.7c-1.2,0-2.1-0.6-2.1-1.3  c0-0.7,0.9-1.3,2.1-1.3c1.2,0,2.1,0.6,2.1,1.3C27.9,48.2,27,48.7,25.8,48.7z M28.7,33.8c-1.2,0-2.1-0.6-2.1-1.3  c0-0.7,0.9-1.3,2.1-1.3c1.2,0,2.1,0.6,2.1,1.3C30.8,33.2,29.9,33.8,28.7,33.8z M37,68.7c-1.2,0-2.1-0.6-2.1-1.3  c0-0.7,0.9-1.3,2.1-1.3c1.2,0,2.1,0.6,2.1,1.3C39.1,68.1,38.2,68.7,37,68.7z M37,33.1c-1.2,0-2.1-0.6-2.1-1.3c0-0.7,0.9-1.3,2.1-1.3  c1.2,0,2.1,0.6,2.1,1.3C39.1,32.6,38.2,33.1,37,33.1z M56.1,35.1c0-0.7,0.9-1.3,2.1-1.3c1.2,0,2.1,0.6,2.1,1.3  c0,0.7-0.9,1.3-2.1,1.3C57.1,36.5,56.1,35.9,56.1,35.1z M60.3,58c-1.2,0-2.1-0.6-2.1-1.3c0-0.7,0.9-1.3,2.1-1.3  c1.2,0,2.1,0.6,2.1,1.3C62.4,57.4,61.5,58,60.3,58z M67.8,43.9c-1.2,0-2.1-0.6-2.1-1.3c0-0.7,0.9-1.3,2.1-1.3c1.2,0,2.1,0.6,2.1,1.3  C69.8,43.3,68.9,43.9,67.8,43.9z M71.9,66c-1.2,0-2.1-0.6-2.1-1.3s0.9-1.3,2.1-1.3c1.2,0,2.1,0.6,2.1,1.3S73.1,66,71.9,66z   M78.4,42.6c-1.2,0-2.1-0.6-2.1-1.3c0-0.7,0.9-1.3,2.1-1.3c1.2,0,2.1,0.6,2.1,1.3C80.5,42,79.6,42.6,78.4,42.6z M84,55.4  c-1.2,0-2.1-0.6-2.1-1.3c0-0.7,0.9-1.3,2.1-1.3s2.1,0.6,2.1,1.3C86.1,54.8,85.2,55.4,84,55.4z"/>
<path d="M81.7,32.5C75.9,26.1,66.9,22,56.9,22c-1.9,0-3.7,0.2-5.5,0.4c-3.9-1.2-8-1.9-12.4-1.9c-19.4,0-35.1,12.8-35.1,28.5  S19.6,77.6,39,77.6c3.2,0,6.4-0.4,9.3-1.1c2.7,0.7,5.6,1.1,8.5,1.1c2.5,0,4.9-0.3,7.2-0.8c3,1.7,6.4,2.7,10,2.7  c12.1,0,22-10.9,22-24.2C96.1,44.8,90.1,35.9,81.7,32.5z M74.1,76.4c-2.9,0-5.8-0.8-8.5-2.3l-1-0.6l-1.1,0.2  c-2.2,0.5-4.5,0.7-6.6,0.7c-2.6,0-5.2-0.3-7.8-1l-0.7-0.2l-0.7,0.2c-2.9,0.6-5.8,1-8.7,1c-17.7,0-32-11.4-32-25.5  c0-14,14.4-25.5,32-25.5c3.9,0,7.8,0.6,11.5,1.7l0.7,0.2l0.7-0.1c1.8-0.3,3.4-0.4,5-0.4c8.8,0,17,3.5,22.5,9.5l0.5,0.5l0.6,0.3  c7.5,3,12.5,11,12.5,19.9C93,66.9,84.5,76.4,74.1,76.4z"/>
<ellipse cx="28.7" cy="32.5" rx="2.1" ry="1.3"/>
<ellipse cx="37" cy="31.8" rx="2.1" ry="1.3"/>
<ellipse cx="25.8" cy="47.4" rx="2.1" ry="1.3"/>
<ellipse cx="20.8" cy="61.3" rx="2.1" ry="1.3"/>
<ellipse cx="71.9" cy="64.7" rx="2.1" ry="1.3"/>
<ellipse cx="78.4" cy="41.3" rx="2.1" ry="1.3"/>
<ellipse cx="67.8" cy="42.6" rx="2.1" ry="1.3"/>
<ellipse cx="60.3" cy="56.7" rx="2.1" ry="1.3"/>
<ellipse cx="58.2" cy="35.1" rx="2.1" ry="1.3"/>
<ellipse cx="37" cy="67.4" rx="2.1" ry="1.3"/>
<ellipse cx="84" cy="54.1" rx="2.1" ry="1.3"/>
<ellipse cx="15.9" cy="52.8" rx="2.1" ry="1.3"/>
<text x="0.0" y="117.5" font-size="5.0" font-weight="bold" font-family="Helvetica Neue, Helvetica, Arial-Unicode, Arial, Sans-serif" fill="#000000">Created by Chad Remsing</text><text x="0.0" y="122.5" font-size="5.0" font-weight="bold" font-family="Helvetica Neue, Helvetica, Arial-Unicode, Arial, Sans-serif" fill="#000000">from the Noun Project</text></svg>