<svg xmlns="http://www.w3.org/2000/svg" xmlns:xlink="http://www.w3.org/1999/xlink" version="1.1" id="Livello_1" x="0px" y="0px" width="100px" height="100px" viewBox="5.0 -10.0 100.0 135.0" enable-background="new 0 0 100 100" xml:space="preserve">
<path d="M49.775,13.497c9.795,0.005,19.443,0.76,28.549,4.9c8.855,4.026,14.959,10.401,17.886,19.793  c0.954,3.062,1.117,5.932-0.55,8.711c-1.321,2.203-1.427,4.39-0.273,6.635c1.997,3.886,1.312,7.633-0.284,11.468  c-5.106,12.271-14.763,18.788-27.33,21.271c-3.109,0.614-6.567-0.067-9.79-0.605c-5.84-0.974-11.674-1.374-17.596-1.372  c-13.921,0.006-26.254-9.526-30.262-22.889c-0.524-1.747-1.751-3.314-2.803-4.861c-0.686-1.009-1.712-1.781-2.47-2.749  c-2.232-2.849-2.455-4.518-0.125-7.373c2.491-3.052,3.973-6.4,5.079-10.145c1.761-5.963,5.434-10.772,10.536-14.329  c7.709-5.375,16.144-8.705,25.729-8.461C47.305,13.525,48.541,13.497,49.775,13.497z M88.944,49.744  c0.703-1.689,1.203-3.259,1.983-4.675c1.008-1.831,0.982-3.552,0.347-5.503c-2.038-6.262-5.601-11.441-11.449-14.468  c-4.212-2.18-8.755-4.285-13.37-4.991c-7.41-1.132-15-1.43-22.514-1.429c-7.771,0.001-14.645,3.202-20.887,7.709  c-3.887,2.807-6.933,6.437-8.211,11.031c-1.232,4.428-2.8,8.542-5.818,12.042c-0.095,0.111,0.097,0.47,0.098,0.475  c7.815-0.516,15.58-1.103,23.354-1.522c8.209-0.442,16.401-0.768,24.631,0.261c4.314,0.54,8.753,0.11,13.136,0.072  c3.13-0.027,6.268-0.312,9.386-0.148C82.734,48.763,85.817,49.343,88.944,49.744z M10.746,51.417  c1.593,3.036,3.36,5.389,4.121,8.032c3.265,11.335,13.947,19.875,25.78,19.834c6.476-0.022,12.842,0.518,19.234,1.51  c11.257,1.748,20.151-2.723,26.949-11.436c4.05-5.191,6.297-10.977,2.559-17.463c-0.126-0.218-0.381-0.362-1.097-1.018  c-3.275,0.226-7.126,0.206-10.873,0.819c-5.266,0.861-10.44,2.266-15.681,3.302c-7.729,1.527-15.614,2.555-23.208,0.015  C29.487,51.989,20.188,52.296,10.746,51.417z"/>
<path d="M64.13,38.916c-1.405-0.152-1.984-0.1-2.473-0.285c-4.974-1.884-9.612-1.29-14.14,1.497  c-3.211,1.976-6.985,2.089-10.388,1.113c-5.329-1.529-10.465-1.792-15.735,0.051c4.101-3.52,8.866-3.67,13.827-2.943  c2.022,0.296,4.058,0.765,6.078,0.716c1.73-0.042,3.652-0.34,5.129-1.169C52.321,34.589,57.937,35.084,64.13,38.916z"/>
<path d="M79.153,31.38c-3.144-2.613-6.447-3.037-10.079-1.451c-2.726,1.19-5.476,0.645-7.982-0.512  c-3.91-1.805-7.892-3.083-12.262-3.056c3.741-1.883,7.472-1.418,11.089,0.055c3.418,1.392,6.691,1.854,10.358,0.703  C74.242,25.874,77.123,27.408,79.153,31.38z"/>
<path d="M80.539,62.095c-5.593,0.347-11.186,0.704-16.781,1.028c-0.816,0.047-1.663,0.047-2.457-0.12  c-4.585-0.963-9.167-1.624-13.848-0.205c2.716-2.314,5.931-2.867,9.209-2.817c6.29,0.096,12.578,0.384,18.865,0.635  c1.726,0.069,3.445,0.288,5.167,0.439C80.643,61.401,80.591,61.748,80.539,62.095z"/>
<path d="M57.338,76.916c-4.075-0.955-8.136-1.977-12.23-2.841c-2.66-0.561-5.359-1.177-8.056-1.258  c-3.996-0.12-7.44-1.459-10.592-4.019c0.937,0.208,1.864,0.497,2.811,0.608c2.972,0.348,5.945,0.779,8.929,0.905  c7.003,0.294,13.078,3.334,19.385,5.706C57.503,76.317,57.421,76.616,57.338,76.916z"/>
<text x="0.0" y="117.5" font-size="5.0" font-weight="bold" font-family="Helvetica Neue, Helvetica, Arial-Unicode, Arial, Sans-serif" fill="#000000">Created by Marco Galtarossa</text><text x="0.0" y="122.5" font-size="5.0" font-weight="bold" font-family="Helvetica Neue, Helvetica, Arial-Unicode, Arial, Sans-serif" fill="#000000">from the Noun Project</text></svg>