<svg xmlns="http://www.w3.org/2000/svg" xmlns:xlink="http://www.w3.org/1999/xlink" version="1.1" id="Layer_1" x="0px" y="0px" width="100px" height="100px" viewBox="5.0 -10.0 100.0 135.0" enable-background="new 0 0 100 100" xml:space="preserve">
<g>
	<path d="M76.9,76.026c-0.606-0.876-1.71-1.142-2.48-0.622c-0.954,0.644-0.597,1.161-1.465,1.764   c-0.781,0.543-1.189,0.062-2.16,0.759c-0.756,0.541-0.89,1.668-0.283,2.542l0,0c0.61,0.875,2.384,1.317,4.504-0.155   C77.524,78.566,77.508,76.9,76.9,76.026L76.9,76.026z"/>
	<path d="M68.032,82.39c-0.366-1.001-1.364-1.539-2.243-1.233c-1.086,0.381-0.87,0.972-1.862,1.336   c-0.896,0.326-1.168-0.244-2.283,0.182c-0.869,0.334-1.285,1.39-0.918,2.39l0,0c0.364,0.999,1.968,1.88,4.394,0.992   C67.989,85.005,68.397,83.39,68.032,82.39L68.032,82.39z"/>
	<path d="M85.071,69.255c-0.707-0.729-1.786-0.809-2.432-0.201c-0.796,0.753-0.379,1.184-1.102,1.887   c-0.65,0.633-1.11,0.242-1.914,1.047c-0.627,0.628-0.578,1.711,0.13,2.437l0,0c0.706,0.728,2.444,0.87,4.209-0.845   C86.053,71.547,85.779,69.981,85.071,69.255L85.071,69.255z"/>
	<path d="M61.616,90.557c-2.826,0-5.168-1.303-6.96-3.869l-0.354-0.509l0.165-0.6c0.079-0.285,2.021-6.885,12.147-8.566   c0.961-1.149,3.84-4.159,9.018-6.099c0.886-1.223,3.919-4.923,8.865-6.049c0.996-0.805,3.735-2.935,5.642-3.64   c0.303-0.601,0.842-1.639,1.511-2.775l0.609-1.033l2.336,1.091l-0.586,1.247c-0.416,0.799-1.12,2.365-1.236,3.17l-0.045,0.199   c-0.146,0.479-0.273,0.98-0.408,1.511c-1.17,4.582-2.937,11.506-20.202,21.704c-0.283,0.166-0.597,0.359-0.934,0.567   C68.823,88.359,65.256,90.557,61.616,90.557z M57.236,85.725c1.206,1.474,2.645,2.191,4.38,2.191c2.893,0,6.076-1.961,8.182-3.258   c0.354-0.218,0.681-0.419,0.977-0.594c15.791-9.326,17.746-15.278,18.875-19.646c-1.133,0.692-2.562,1.731-3.726,2.69l-0.255,0.21   l-0.324,0.064c-4.943,0.992-7.725,5.291-7.752,5.335l-0.243,0.384l-0.429,0.151c-5.814,2.067-8.492,5.715-8.519,5.752l-0.327,0.454   l-0.557,0.085C60.333,80.586,57.91,84.304,57.236,85.725z"/>
	<path d="M36.681,9.443L5,35.384v33.503h58.319L95,42.945V9.443H36.681z M92.36,41.694L62.376,66.247H7.641V37.329h53.888v23.295   h2.639v-23.99l25.188-20.62l-1.673-2.042L62.376,34.689h-52.36l27.608-22.605H92.36V41.694z"/>
</g>
<text x="0.0" y="117.5" font-size="5.0" font-weight="bold" font-family="Helvetica Neue, Helvetica, Arial-Unicode, Arial, Sans-serif" fill="#000000">Created by Anna Wojtowicz</text><text x="0.0" y="122.5" font-size="5.0" font-weight="bold" font-family="Helvetica Neue, Helvetica, Arial-Unicode, Arial, Sans-serif" fill="#000000">from the Noun Project</text></svg>