<svg xmlns="http://www.w3.org/2000/svg" xmlns:xlink="http://www.w3.org/1999/xlink" version="1.1" id="Capa_1" x="0px" y="0px" width="90px" height="90px" viewBox="4.5 -9.0 90.0 121.5" enable-background="new 0 0 90 90" xml:space="preserve">
<path fill="#000000" d="M84.214,39.781c-4.657-7.178-14.694-8.857-22.324-7.65c-2.997-0.586-1.624-1.499-9.47-2.729  c-2.52-0.388-5.815-0.722-9.51-0.875c-5.843-2.227-12.985-1.516-16.987,0.789c-11.788,1.75-22.557,6.47-23.398,17.201  c-0.695,8.886,13.359,11.995,19.36,13.371c13.679,3.136,22.954,3.077,36.906,2.834C69.269,62.539,96.953,59.416,84.214,39.781z   M37.751,29.248c0.97-0.414,1.985-0.467,2.981-0.347c1.006,0.111,1.91,0.648,2.765,1.167c1.716,1.031,3.15,2.613,3.667,4.503  c0.013,0.045-0.015,0.09-0.06,0.102c-0.039,0.011-0.078-0.007-0.096-0.04l-0.004-0.009c-0.443-0.809-1.098-1.487-1.81-2.031  c-0.698-0.564-1.483-1.004-2.307-1.323c-0.825-0.337-1.716-0.409-2.541-0.729c-0.837-0.313-1.696-0.612-2.605-1.126  c-0.045-0.025-0.061-0.082-0.036-0.127C37.717,29.27,37.732,29.255,37.751,29.248z M39.415,42.827  c-0.053-0.002-0.105-0.004-0.159-0.009c0.012-0.016,0.04-0.035,0.049-0.051c0.012-0.022,0.017-0.045,0.027-0.069  c0.001,0,0.003,0,0.005,0C39.365,42.742,39.387,42.786,39.415,42.827z M61.219,60.803c-18.223,2.286-22.726,1.736-40.686-2.382  c-4.801-1.103-9.236-2.678-13.109-5.85c-9.703-7.949,3.175-17.304,10.165-19.731c1.934-0.672,3.914-1.204,5.91-1.671  c-4.65,3.873-11.536,7.56-4.034,12.076c7.254,4.368,21.37,4.162,29.24,1.519c0.983-0.33,1.214-0.315,2.124-0.717  c6.46-3.165,2.201-8.149-3.318-12.858c-0.691-0.59-1.448-1.089-2.237-1.541c2.069,0.161,4.13,0.373,6.166,0.686  c8.512,1.336,0.61,2.671,9.235,2.802c8.297,0.126,14.18,0.087,20.61,5.684c3.704,3.224,4.585,7.903,2.594,12.369  C80.591,58.569,68.04,59.947,61.219,60.803z"/>
<text x="0.0" y="105.75" font-size="4.5" font-weight="bold" font-family="Helvetica Neue, Helvetica, Arial-Unicode, Arial, Sans-serif" fill="#000000">Created by Jos&#233; Manuel de La&#225;</text><text x="0.0" y="110.25" font-size="4.5" font-weight="bold" font-family="Helvetica Neue, Helvetica, Arial-Unicode, Arial, Sans-serif" fill="#000000">from the Noun Project</text></svg>