<svg xmlns="http://www.w3.org/2000/svg" xmlns:xlink="http://www.w3.org/1999/xlink" version="1.1" id="Vrstva_1" x="0px" y="0px" width="90px" height="90px" viewBox="4.5 -9.0 90.0 121.5" enable-background="new 0 0 90 90" xml:space="preserve">
<path d="M89.772,45c-5.924-5.363-6.999-10.477-3.519-17.428c-7.414-2.348-10.269-6.527-9.596-14.231  c-7.704,0.674-11.883-2.181-14.23-9.595C55.477,7.228,50.363,6.151,45,0.228c-5.363,5.924-10.477,7-17.428,3.519  c-2.348,7.414-6.527,10.269-14.231,9.595c0.674,7.704-2.181,11.884-9.595,14.231C7.228,34.523,6.151,39.637,0.228,45  c5.924,5.363,7,10.477,3.519,17.428c7.414,2.348,10.269,6.526,9.595,14.23c7.704-0.673,11.884,2.182,14.231,9.596  c6.951-3.48,12.064-2.405,17.428,3.519c5.363-5.924,10.477-6.999,17.428-3.519c2.348-7.414,6.526-10.269,14.23-9.596  c-0.673-7.704,2.182-11.883,9.596-14.23C82.773,55.477,83.849,50.363,89.772,45z M82.506,60.844  c-6.74,2.136-9.335,5.935-8.723,12.939c-0.66-0.058-1.291-0.087-1.895-0.087c-5.811,0-9.11,2.704-11.045,8.81  c-2.385-1.195-4.531-1.799-6.542-1.799c-3.317,0-6.266,1.646-9.302,4.998c-3.035-3.354-5.984-4.998-9.302-4.998  c-2.011,0-4.157,0.604-6.542,1.799c-1.934-6.105-5.233-8.81-11.045-8.81c-0.604,0-1.234,0.029-1.895,0.087  c0.613-7.005-1.982-10.804-8.723-12.939C10.658,54.525,9.681,49.877,4.295,45c5.386-4.876,6.363-9.525,3.199-15.844  c6.74-2.135,9.336-5.935,8.723-12.939c0.66,0.058,1.291,0.087,1.896,0.087c5.809,0,9.109-2.705,11.043-8.81  c2.385,1.194,4.531,1.798,6.543,1.798c3.316,0,6.266-1.645,9.301-4.998c3.036,3.353,5.984,4.998,9.302,4.998  c2.011,0,4.157-0.604,6.542-1.798c1.935,6.105,5.233,8.81,11.044,8.81c0.604,0,1.235-0.029,1.896-0.087  c-0.612,7.004,1.982,10.804,8.723,12.939C79.34,35.475,80.319,40.124,85.705,45C80.319,49.877,79.34,54.525,82.506,60.844z"/>
<path d="M46.628,55.225"/>
<path d="M82.691,45c-4.168-4.482-5.13-9.125-3.028-14.639c-5.433-2.318-7.997-6.109-8.079-11.945  c-5.773-0.087-9.618-2.673-11.941-8.081c-1.885,0.719-3.646,1.071-5.341,1.071c-3.318,0-6.314-1.311-9.302-4.096  c-2.986,2.786-5.982,4.096-9.301,4.096c-1.695,0-3.457-0.352-5.342-1.071c-2.322,5.406-6.168,7.994-11.94,8.081  c-0.082,5.836-2.647,9.626-8.08,11.945c2.101,5.516,1.14,10.157-3.028,14.639c4.168,4.482,5.129,9.124,3.027,14.638  c5.434,2.318,7.999,6.11,8.081,11.945c5.772,0.088,9.618,2.674,11.94,8.079c1.885-0.719,3.646-1.071,5.341-1.071  c3.318,0,6.315,1.312,9.302,4.097c2.987-2.785,5.984-4.097,9.302-4.097c1.694,0,3.456,0.353,5.341,1.071  c2.323-5.405,6.168-7.992,11.941-8.079c0.082-5.836,2.646-9.627,8.079-11.944C77.562,54.125,78.523,49.482,82.691,45z   M61.035,53.965l-7.07,7.07L45,52.07l-8.965,8.965l-7.07-7.07L37.93,45l-8.965-8.965l7.07-7.071L45,37.929l8.965-8.964l7.07,7.071  L52.07,45L61.035,53.965z"/>
<text x="0.0" y="105.75" font-size="4.5" font-weight="bold" font-family="Helvetica Neue, Helvetica, Arial-Unicode, Arial, Sans-serif" fill="#000000">Created by Michal Kuk</text><text x="0.0" y="110.25" font-size="4.5" font-weight="bold" font-family="Helvetica Neue, Helvetica, Arial-Unicode, Arial, Sans-serif" fill="#000000">from the Noun Project</text></svg>