<svg xmlns="http://www.w3.org/2000/svg" xmlns:xlink="http://www.w3.org/1999/xlink" version="1.1" id="Your_Icon" x="0px" y="0px" width="100px" height="100px" viewBox="5.0 -10.0 100.0 135.0" enable-background="new 0 0 100 100" xml:space="preserve">
<path d="M96.681,20.333c-0.228-1.238-0.876-2.222-1.874-2.846c-1.117-0.698-2.219-1.066-3.277-1.096  c-0.278-0.561-0.721-1.189-1.421-1.729c-0.618-0.476-1.381-0.727-2.205-0.727c-1.687,0-3.533,1.037-5.199,2.92  c-2.01,2.272-1.502,5.444-1.096,6.955l-2.136,2.693l-5.525,4.365c-0.087,0.049-0.233,0.132-0.426,0.241  c-0.813-0.201-1.578-0.358-2.232-0.475l1.691-3.193c1.247-0.413,3.846-1.476,5.031-3.453c2.377-3.959,0.905-6.057-0.748-7.12  c-1.341-0.862-2.726-1.026-3.775-0.928c-0.37-0.526-0.887-1.115-1.515-1.453c-0.835-0.449-2.202-0.776-3.542-0.351  c-0.811,0.258-1.944,0.902-2.743,2.505c-1.584,3.179-1.065,5.527-0.474,6.82l-1.946,2.432c-1.118,0.766-7.047,4.832-10.854,7.533  c-3.952,2.806-4.137,2.856-9.747,2.726c-5.593-0.128-15.87,2.253-17.339,3.707c-0.524,0.519-0.75,1.23-0.989,1.982  c-0.445,1.402-0.95,2.991-3.238,3.806c-2.4,0.853-6.703-3.448-8.414-5.664c-0.312-0.404-0.807-0.616-1.316-0.578  c-0.508,0.044-0.96,0.343-1.198,0.794l-3.959,7.503c-0.197,0.374-0.228,0.814-0.083,1.211C8.631,55.814,16.336,63.156,20.813,67  H6.38c-0.466,0-0.905,0.217-1.189,0.586c-0.284,0.369-0.38,0.849-0.261,1.299l1.329,5C6.434,74.542,7.029,75,7.709,75h8.407  l2.67,5.187C19.043,80.687,19.558,81,20.12,81h58.136c0.562,0,1.076-0.314,1.334-0.813L82.259,75h7.999  c0.681,0,1.275-0.458,1.45-1.115l1.327-5c0.119-0.45,0.022-0.93-0.262-1.299C92.49,67.217,92.051,67,91.585,67H79.791  c2.542-2.571,5.443-7.048,5.443-14.127c0-3.302-0.49-6.465-1.456-9.4c-0.036-0.11-0.086-0.21-0.144-0.306l4.198-11.319l1.492-2.579  c1.338-0.072,3.928-0.571,5.884-3.154C96.223,24.775,97.054,22.359,96.681,20.333z M75.718,33.293l5.175-4.089  c0.777,0.884,1.989,1.923,3.751,2.616l-8.181,22.059c-0.126,0.353-3.251,8.634-16.562,8.634c-1.152,0-2.364-0.063-3.55-0.183  C56.268,62.318,48,61.116,48,54.667v-1.718v-1.185c0-2.978,2.186-5.46,6.321-7.179c5.089-2.114,16.611-8.566,20.162-10.573  c0.001,0,0.002-0.001,0.003-0.001c0.582-0.329,0.957-0.543,1.045-0.593C75.597,33.381,75.659,33.339,75.718,33.293z M68.374,17.98  c0.266-0.534,0.591-0.865,0.967-0.984c0.476-0.153,1.003,0.021,1.212,0.134c0.196,0.109,0.617,0.68,0.848,1.148  c0.335,0.692,1.165,1.008,1.888,0.746c0.046-0.017,1.155-0.403,2.354,0.367c0.524,0.337,1.177,0.756-0.202,3.053  c-0.738,1.231-3.102,2.087-3.869,2.29c-0.407,0.105-0.752,0.378-0.949,0.75l-0.719,1.358c-0.941-0.229-1.879-0.701-2.619-1.166  l0.919-1.148c0.442-0.552,0.413-1.369-0.035-1.917C68.114,22.547,66.878,20.98,68.374,17.98z M77.341,78H21.035l-1.545-3h59.395  L77.341,78z M89.104,72h-7.761H17.031H8.862l-0.531-2h16.688h50.385h14.23L89.104,72z M82.234,52.873  c0,9.359-5.835,13.321-7.213,14.127H25.534c-2.209-1.741-13.102-10.602-16.348-18.501l2.609-4.943  c2.24,2.425,6.536,6.264,10.313,4.918c3.69-1.314,4.602-4.183,5.091-5.724c0.085-0.267,0.198-0.623,0.232-0.73  c1.386-0.779,9.752-2.979,15.167-2.868c6.217,0.148,7.077-0.1,11.553-3.278c4.175-2.962,10.928-7.584,10.995-7.63  c0.088-0.06,0.158-0.138,0.231-0.214c0.778,0.52,1.856,1.136,3.082,1.538l-0.817,1.544c-0.233,0.442-0.231,0.972,0.006,1.412  c0.236,0.441,0.678,0.734,1.176,0.783c0.007,0,0.252,0.026,0.639,0.079c-4.927,2.735-12.553,6.877-16.292,8.431  C46.062,44.77,45,49.317,45,51.765v2.902c0,7.231,7.16,10.119,10.997,10.642c1.338,0.136,2.652,0.204,3.904,0.204  c15.538,0,19.244-10.211,19.383-10.614l2.535-6.835C82.086,49.618,82.234,51.222,82.234,52.873z M92.817,24.304  c-1.302,1.719-2.984,1.975-3.872,1.975c-0.153,0-0.254-0.008-0.271-0.01c-0.608-0.083-1.199,0.207-1.504,0.734l-1.215,2.099  c-1.573-0.564-2.521-1.485-3.024-2.131l1.521-1.919c0.332-0.419,0.416-0.984,0.22-1.482c-0.012-0.03-1.162-3.098,0.279-4.727  c1.244-1.407,2.34-1.908,2.951-1.908c0.24,0,0.343,0.079,0.376,0.104c0.625,0.481,0.727,1.148,0.728,1.148  c0.051,0.521,0.252,1.038,0.723,1.265c0.472,0.229,0.91,0.254,1.349-0.028c0.014-0.004,0.816-0.22,2.139,0.605  c0.174,0.108,0.416,0.314,0.514,0.845C93.925,21.929,93.404,23.527,92.817,24.304z"/>
<text x="0.0" y="117.5" font-size="5.0" font-weight="bold" font-family="Helvetica Neue, Helvetica, Arial-Unicode, Arial, Sans-serif" fill="#000000">Created by Moe Amaya</text><text x="0.0" y="122.5" font-size="5.0" font-weight="bold" font-family="Helvetica Neue, Helvetica, Arial-Unicode, Arial, Sans-serif" fill="#000000">from the Noun Project</text></svg>