<svg xmlns="http://www.w3.org/2000/svg" xmlns:xlink="http://www.w3.org/1999/xlink" version="1.1" id="Layer_1" x="0px" y="0px" width="100px" height="100px" viewBox="5.0 -10.0 100.0 135.0" enable-background="new 0 0 100 100" xml:space="preserve">
<g>
	<g>
		<g>
			<g>
			</g>
		</g>
		<g>
		</g>
	</g>
</g>
<g>
	<g>
		<g>
			<g>
			</g>
		</g>
		<g>
		</g>
	</g>
</g>
<g>
	<g>
		<g>
			<g>
			</g>
		</g>
		<g>
		</g>
	</g>
</g>
<g>
	<g>
		<g>
			<g>
			</g>
		</g>
		<g>
		</g>
	</g>
</g>
<g>
	<g>
		<g>
			<g>
			</g>
		</g>
		<g>
		</g>
	</g>
</g>
<g>
	<g>
		<g>
			<g>
			</g>
		</g>
		<g>
		</g>
	</g>
</g>
<g>
	<g>
		<g>
			<g>
			</g>
		</g>
		<g>
		</g>
	</g>
</g>
<g>
	<g>
		<g>
			<g>
			</g>
		</g>
		<g>
		</g>
	</g>
</g>
<g>
	<g>
		<g>
			<g>
			</g>
		</g>
		<g>
		</g>
	</g>
</g>
<g>
	<g>
		<g>
			<g>
			</g>
		</g>
		<g>
		</g>
	</g>
</g>
<g>
	<g>
		<g>
			<g>
			</g>
		</g>
		<g>
		</g>
	</g>
</g>
<g>
	<g>
		<g>
			<g>
			</g>
		</g>
		<g>
		</g>
	</g>
</g>
<g>
	<g>
		<g>
			<g>
			</g>
		</g>
		<g>
		</g>
	</g>
</g>
<g>
	<g>
		<g>
			<g>
			</g>
		</g>
		<g>
		</g>
	</g>
</g>
<g>
	<g>
		<g>
			<g>
			</g>
		</g>
		<g>
		</g>
	</g>
</g>
<g>
	<g>
		<g>
			<g>
			</g>
		</g>
		<g>
		</g>
	</g>
</g>
<g>
	<g>
		<g>
			<g>
			</g>
		</g>
		<g>
		</g>
	</g>
</g>
<g>
	<g>
		<g>
			<g>
			</g>
		</g>
		<g>
		</g>
	</g>
</g>
<g>
	<g>
		<g>
			<g>
			</g>
		</g>
		<g>
		</g>
	</g>
</g>
<g>
	<g>
		<g>
			<g>
			</g>
		</g>
		<g>
		</g>
	</g>
</g>
<g>
	<g>
		<g>
			<g>
			</g>
		</g>
		<g>
		</g>
	</g>
</g>
<g>
	<g>
		<g>
			<g>
			</g>
		</g>
		<g>
		</g>
	</g>
</g>
<g>
	<g>
		<g>
			<g>
			</g>
		</g>
		<g>
		</g>
	</g>
</g>
<g>
	<g>
		<g>
			<g>
			</g>
		</g>
		<g>
		</g>
	</g>
</g>
<g>
	<g>
		<g>
			<g>
			</g>
		</g>
		<g>
		</g>
	</g>
</g>
<g>
	<g>
		<g>
			<g>
			</g>
		</g>
		<g>
		</g>
	</g>
</g>
<g>
	<g>
		<g>
			<g>
			</g>
		</g>
		<g>
		</g>
	</g>
</g>
<g>
	<g>
		<g>
			<g>
			</g>
		</g>
		<g>
		</g>
	</g>
</g>
<g>
	<g>
		<g>
			<g>
			</g>
		</g>
		<g>
		</g>
	</g>
</g>
<g>
	<g>
		<g>
			<g>
			</g>
		</g>
		<g>
		</g>
	</g>
</g>
<g>
	<g>
		<g>
			<g>
			</g>
		</g>
		<g>
		</g>
	</g>
</g>
<g>
	<g>
		<g>
			<g>
			</g>
		</g>
		<g>
		</g>
	</g>
</g>
<g>
	<g>
		<g>
			<g>
			</g>
		</g>
		<g>
		</g>
	</g>
</g>
<g>
	<g>
		<g>
			<g>
			</g>
		</g>
		<g>
		</g>
	</g>
</g>
<g>
	<g>
		<g>
			<g>
			</g>
		</g>
		<g>
		</g>
	</g>
</g>
<g>
	<g>
		<g>
			<g>
			</g>
		</g>
		<g>
		</g>
	</g>
</g>
<g>
	<g>
		<g>
			<g>
			</g>
		</g>
		<g>
		</g>
	</g>
</g>
<g>
	<g>
		<g>
			<g>
			</g>
		</g>
		<g>
		</g>
	</g>
</g>
<g>
	<g>
		<g>
			<g>
			</g>
		</g>
		<g>
		</g>
	</g>
</g>
<g>
	<g>
		<g>
			<g>
			</g>
		</g>
		<g>
		</g>
	</g>
</g>
<g>
	<g>
		<g>
			<g>
			</g>
		</g>
		<g>
		</g>
	</g>
</g>
<g>
	<g>
		<g>
			<g>
			</g>
		</g>
		<g>
		</g>
	</g>
</g>
<g>
	<g>
		<g>
			<g>
			</g>
		</g>
		<g>
		</g>
	</g>
</g>
<g>
	<g>
		<g>
			<g>
			</g>
		</g>
		<g>
		</g>
	</g>
</g>
<g>
	<g>
		<g>
			<g>
			</g>
		</g>
		<g>
		</g>
	</g>
</g>
<g>
	<g>
		<g>
			<g>
			</g>
		</g>
		<g>
		</g>
	</g>
</g>
<g>
	<g>
		<g>
			<g>
			</g>
		</g>
		<g>
		</g>
	</g>
</g>
<g>
	<g>
		<g>
			<g>
			</g>
		</g>
		<g>
		</g>
	</g>
</g>
<g>
	<g>
		<g>
			<g>
			</g>
		</g>
		<g>
		</g>
	</g>
</g>
<g>
	<g>
		<g>
			<g>
			</g>
		</g>
		<g>
		</g>
	</g>
</g>
<g>
	<g>
		<g>
			<g>
			</g>
		</g>
		<g>
		</g>
	</g>
</g>
<g>
	<g>
		<g>
			<g>
			</g>
		</g>
		<g>
		</g>
	</g>
</g>
<g>
	<g>
		<g>
			<g>
			</g>
		</g>
		<g>
		</g>
	</g>
</g>
<g>
	<g>
		<g>
			<g>
			</g>
		</g>
		<g>
		</g>
	</g>
</g>
<g>
	<g>
		<g>
			<g>
			</g>
		</g>
		<g>
		</g>
	</g>
</g>
<g>
	<g>
		<g>
			<g>
			</g>
		</g>
		<g>
		</g>
	</g>
</g>
<g>
	<g>
		<g>
			<g>
			</g>
		</g>
		<g>
		</g>
	</g>
</g>
<g>
	<g>
		<g>
			<g>
			</g>
		</g>
		<g>
		</g>
	</g>
</g>
<g>
	<g>
		<g>
			<g>
			</g>
		</g>
		<g>
		</g>
	</g>
</g>
<g>
	<g>
		<g>
			<g>
			</g>
		</g>
		<g>
		</g>
	</g>
</g>
<g>
	<g>
		<g>
			<g>
			</g>
		</g>
		<g>
		</g>
	</g>
</g>
<g>
	<g>
		<g>
			<g>
			</g>
		</g>
		<g>
		</g>
	</g>
</g>
<g>
	<g>
		<g>
			<g>
			</g>
		</g>
		<g>
		</g>
	</g>
</g>
<g>
	<g>
		<g>
			<g>
			</g>
		</g>
		<g>
		</g>
	</g>
</g>
<g>
	<g>
		<g>
			<g>
			</g>
		</g>
		<g>
		</g>
	</g>
</g>
<g>
	<g>
		<g>
			<g>
			</g>
		</g>
		<g>
		</g>
	</g>
</g>
<g>
	<g>
		<g>
			<g>
			</g>
		</g>
		<g>
		</g>
	</g>
</g>
<g>
	<g>
		<g>
			<g>
			</g>
		</g>
		<g>
		</g>
	</g>
</g>
<g>
	<g>
		<g>
			<g>
			</g>
		</g>
		<g>
		</g>
	</g>
</g>
<g>
	<g>
		<g>
			<g>
			</g>
		</g>
		<g>
		</g>
	</g>
</g>
<g>
	<g>
		<g>
			<g>
			</g>
		</g>
		<g>
		</g>
	</g>
</g>
<g>
	<g>
		<g>
			<g>
			</g>
		</g>
		<g>
		</g>
	</g>
</g>
<g>
	<g>
		<g>
			<g>
			</g>
		</g>
		<g>
		</g>
	</g>
</g>
<g>
	<g>
		<g>
			<g>
			</g>
		</g>
		<g>
		</g>
	</g>
</g>
<g>
	<g>
		<g>
			<g>
			</g>
		</g>
		<g>
		</g>
	</g>
</g>
<g>
	<g>
		<g>
			<g>
			</g>
		</g>
		<g>
		</g>
	</g>
</g>
<g>
	<g>
		<g>
			<g>
			</g>
		</g>
		<g>
		</g>
	</g>
</g>
<g>
	<g>
		<g>
			<g>
			</g>
		</g>
		<g>
		</g>
	</g>
</g>
<g>
	<g>
		<g>
			<g>
			</g>
		</g>
		<g>
		</g>
	</g>
</g>
<g>
	<g>
		<g>
			<g>
			</g>
		</g>
		<g>
		</g>
	</g>
</g>
<g>
	<g>
		<g>
			<g>
			</g>
		</g>
		<g>
		</g>
	</g>
</g>
<g>
	<g>
		<g>
			<g>
			</g>
		</g>
		<g>
		</g>
	</g>
</g>
<g>
	<g>
		<g>
			<g>
			</g>
		</g>
		<g>
		</g>
	</g>
</g>
<g>
	<g>
		<g>
			<g>
			</g>
		</g>
		<g>
		</g>
	</g>
</g>
<g>
	<g>
		<g>
			<g>
			</g>
		</g>
		<g>
		</g>
	</g>
</g>
<g>
	<g>
		<g>
			<g>
			</g>
		</g>
		<g>
		</g>
	</g>
</g>
<g>
	<g>
		<g>
			<g>
			</g>
		</g>
		<g>
		</g>
	</g>
</g>
<g>
	<g>
		<g>
			<g>
			</g>
		</g>
		<g>
		</g>
	</g>
</g>
<g>
	<g>
		<g>
			<g>
			</g>
		</g>
		<g>
		</g>
	</g>
</g>
<g>
	<g>
		<g>
			<g>
			</g>
		</g>
		<g>
		</g>
	</g>
</g>
<g>
	<g>
		<g>
			<g>
			</g>
		</g>
		<g>
		</g>
	</g>
</g>
<g>
	<g>
		<g>
			<g>
			</g>
		</g>
		<g>
		</g>
	</g>
</g>
<g>
	<g>
		<g>
			<g>
			</g>
		</g>
		<g>
		</g>
	</g>
</g>
<g>
	<g>
		<g>
			<g>
			</g>
		</g>
		<g>
		</g>
	</g>
</g>
<g>
	<g>
		<g>
			<g>
			</g>
		</g>
		<g>
		</g>
	</g>
</g>
<g>
	<g>
		<g>
			<g>
			</g>
		</g>
		<g>
		</g>
	</g>
</g>
<g>
	<g>
		<g>
			<g>
			</g>
		</g>
		<g>
		</g>
	</g>
</g>
<g>
	<g>
		<g>
			<g>
			</g>
		</g>
		<g>
		</g>
	</g>
</g>
<g>
	<g>
		<g>
			<g>
			</g>
		</g>
		<g>
		</g>
	</g>
</g>
<g>
	<g>
		<g>
			<g>
			</g>
		</g>
		<g>
		</g>
	</g>
</g>
<g>
	<path d="M12.009,45.059h0.031c-0.475-0.01-0.941-0.016-1.386-0.016c-3.567,0-3.815,0.31-3.949,0.476l-0.068,0.084   c-0.805,0.994-1.845,2.446-1.584,3.577c0.185,0.802,1.733,1.205,4.937,1.968c1.356,0.323,2.828,0.675,4.069,1.077   C12.367,50.417,12.025,45.302,12.009,45.059z"/>
	<path d="M18.428,45.457l0.059,0.009C18.467,45.463,18.447,45.46,18.428,45.457z"/>
	<path d="M34.247,56.813c-3.913-2.869-7.984-9.438-8.028-9.51c-1.829-0.51-3.533-0.957-4.998-1.296   c0.015,0.044,1.076,3.194,2.646,5.773c1.431,2.351,6.539,6.678,9.45,8.371c0.392,0.158,0.741,0.3,1.032,0.421   c2.282,0.946,6.309,2.065,9.968,3.045C41.823,61.999,37.048,58.867,34.247,56.813z"/>
	<path d="M52.229,60.261c3.225,1.274,11.74,1.828,11.828,1.833l0.467,0.231c-0.358-0.02-9.126-0.53-12.391-1.82   c-3.261-1.288-14.148-9.504-14.606-9.849c-1.572-0.48-3.22-0.982-4.875-1.479c0.026,0.028,2.277,2.415,5.677,5.351   c3.136,2.708,7.832,6.319,12.394,8.147c3.695,1.481,8.836,2.723,14.105,3.409c4.574,0.595,8.31,0.613,9.087,0.043   c0.124-0.091,0.113-0.211,0.111-0.235l0.227,0.073c-1.625-0.626-3.157-1.142-4.265-1.372c-2.191-0.455-6.464-2.749-10.988-5.178   c-4.973-2.67-10.115-5.432-13.627-6.414c-1.879-0.526-4.541-1.336-7.373-2.201C38.118,50.89,49.002,58.986,52.229,60.261z"/>
	<path d="M19.148,50.309c-0.617-2.473-0.803-4.829-0.805-4.864c-0.219-0.031-0.427-0.056-0.615-0.073   c-1.776-0.159-3.69-0.266-5.454-0.309c0.009,0.137,0.44,6.444,2.541,7.41l-0.006,0.013c0.385,0.145,0.736,0.296,1.036,0.454   c1.037,0.549,3.153,1.458,5.614,2.469C20.518,54.401,19.743,52.697,19.148,50.309z"/>
	<path d="M82.278,69.549c-0.178,0.222-3.336,1.025-8.424,1.025c-2.43,0-5.299-0.184-8.493-0.701c1.111,0.362,2.068,0.68,2.775,0.927   c3.189,1.113,12.912,2.452,16.609,2.452c0.978,0,1.307-0.095,1.47-0.165c0.235-0.102,0.365-0.315,0.34-0.555   C86.496,71.966,85.056,70.964,82.278,69.549z"/>
	<path d="M81.98,69.397c-0.667-0.335-1.405-0.693-2.217-1.073c-1.607-0.752-3.598-1.62-5.471-2.344   c0.008,0.11-0.025,0.213-0.223,0.358c-0.428,0.315-1.571,0.466-3.173,0.466c-4.903,0-14.104-1.415-20.271-3.886   c-4.596-1.842-9.318-5.472-12.47-8.194c-3.411-2.945-5.905-5.648-5.931-5.676c-1.891-0.566-3.78-1.121-5.565-1.623   c0.045,0.075,3.873,6.337,7.743,9.174c3.08,2.259,8.55,5.823,10.736,7.236c0.336,0.09,0.67,0.178,0.995,0.265   c1.431,0.38,2.783,0.739,3.84,1.038c2.85,0.806,8.897,2.656,13.501,4.126C75.014,71.552,81.918,69.43,81.98,69.397z"/>
	<path d="M23.642,51.917c-1.587-2.607-2.801-5.958-2.813-5.991L21.189,46c-0.982-0.226-1.853-0.403-2.582-0.515   c0.008,0.103,0.662,8.064,3.562,10.216c2.419,0.987,5.093,2.046,7.373,2.949c0.885,0.35,1.717,0.68,2.46,0.976   C29.019,57.605,24.909,53.997,23.642,51.917z"/>
</g>
<g>
	<path d="M94.985,56.947c-0.114-1.999-1.825-3.195-4.415-5.005c-0.673-0.471-1.437-1.004-2.243-1.602   c-3.783-2.804-9.809-5.566-14.199-7.39c-2.95-1.226-7.573-4.034-10.949-6.085c-1.512-0.919-2.818-1.712-3.717-2.211   c-2.998-1.666-17.272-6.12-20.734-6.761c-3.289-0.609-10.559-1.552-12.463-0.974c-1.197,0.364-1.883,1.082-3.021,2.271   c-0.629,0.658-1.412,1.477-2.513,2.475c-3.069,2.784-13.89,13.713-13.999,13.823l1.476-0.37c0.063-0.063,3.391-3.425,6.779-6.787   c-0.101,1-0.18,2.545,0.13,3.619c0.512,1.78,1.633,2.02,2.662,2.02c1.663,0,4.887-1.85,7.731-3.482   c1.071-0.615,2.083-1.195,2.965-1.653c3.165-1.645,13.864-7.44,16.01-8.603c2.709,0.802,5.831,1.793,8.535,2.724   c-0.778-0.004-1.789,0.024-3.013,0.129c-2.819,0.244-7.364,0.961-13.008,2.99c-10.791,3.879-18.58,9.316-18.657,9.369l0.264,0.039   c0.077-0.053,7.725-5.294,18.481-9.161c5.612-2.017,10.129-2.731,12.93-2.974c1.703-0.148,2.995-0.145,3.804-0.113   c2.384,0.837,4.348,1.602,5.257,2.107c0.886,0.492,2.185,1.282,3.691,2.196c3.586,2.179,8.049,4.89,11.056,6.139   c0.808,0.336,1.673,0.704,2.568,1.098c1.983,1.371,5.969,4.17,8.529,6.255c3.287,2.678,7.578,8.396,8.107,9.109   c-0.605,1.222-1.401,2.68-2.284,4.217c-0.236-0.309-0.979-1.21-2.762-2.888c-0.509-0.479-1.104-1.058-1.792-1.728   c-2.285-2.223-5.414-5.268-8.459-7.603c-3.767-2.888-7.681-5.865-10.511-7.752c-0.632-0.421-1.424-0.997-2.341-1.664   c-3.083-2.243-7.307-5.315-10.564-6.231c-4.326-1.217-7.593-0.296-13.468,1.577c-5.976,1.906-19.881,7.799-20.02,7.857l0.391,0.081   c0.138-0.058,13.744-5.786,19.709-7.688c5.825-1.857,9.063-2.772,13.317-1.574c3.212,0.903,7.413,3.96,10.481,6.191   c0.919,0.669,1.712,1.246,2.349,1.67c2.824,1.882,6.734,4.857,10.497,7.742c3.033,2.325,6.156,5.364,8.436,7.583   c0.689,0.671,1.285,1.251,1.795,1.731c2.008,1.89,2.694,2.799,2.799,2.944c-1.425,2.468-3.055,5.117-4.462,7.312l0.345,0.923   C87.372,71.461,95.12,59.304,94.985,56.947z M34.943,28.097c-2.077,1.217-6.635,2.683-7.655,2.229   c-0.172-0.076-0.291-0.207-0.364-0.398c-0.263-0.688,0.158-1.898,0.347-2.375C28.888,27.435,32.027,27.708,34.943,28.097z    M23.815,29.734c1.084-1.134,1.681-1.758,2.68-2.062c0.127-0.038,0.291-0.068,0.481-0.091c-0.215,0.569-0.574,1.719-0.298,2.441   c0.098,0.257,0.267,0.44,0.503,0.545c0.157,0.07,0.377,0.102,0.646,0.102c1.824,0,5.88-1.463,7.526-2.515   c0.95,0.131,1.866,0.273,2.688,0.417c-0.947,0.686-2.973,2.116-4.699,3.075c-2.384,1.325-9.02,4.205-10.514,3.54   c-1.127-0.502-0.444-3.193-0.007-4.427C23.195,30.381,23.523,30.039,23.815,29.734z M21.262,32.248   c0.428-0.388,0.808-0.749,1.15-1.084c-0.38,1.236-0.953,3.698,0.309,4.26c0.18,0.08,0.419,0.117,0.705,0.117   c2.375,0,7.996-2.53,10.043-3.667c1.874-1.041,4.098-2.632,4.93-3.241c0.062,0.011,0.126,0.023,0.187,0.034   c0.533,0.099,1.326,0.289,2.294,0.545c-1.627,0.908-5.731,3.18-9.961,5.364c-9.506,4.907-11.772,5.31-12.277,5.114   c-0.364-0.142-0.614-0.393-0.762-0.769c-0.444-1.122,0.173-3.005,0.56-3.988C19.593,33.811,20.592,32.856,21.262,32.248z    M28.355,38.602c-0.886,0.461-1.901,1.043-2.974,1.659c-2.816,1.616-6.008,3.447-7.601,3.447c-0.978,0-1.946-0.222-2.409-1.83   c-0.329-1.142-0.193-2.901-0.084-3.843c0.927-0.919,1.851-1.83,2.708-2.667c-0.374,1.068-0.767,2.62-0.36,3.65   c0.175,0.441,0.481,0.75,0.911,0.917c0.087,0.034,0.2,0.051,0.34,0.051c1.41,0,5.491-1.738,12.153-5.176   c4.458-2.301,8.774-4.699,10.204-5.499c0.858,0.231,1.837,0.509,2.885,0.817C41.537,31.531,31.417,37.011,28.355,38.602z    M93.161,59.875c-0.795-1.063-4.893-6.457-8.071-9.047c-2.139-1.743-5.269-3.981-7.403-5.473c3.59,1.631,7.471,3.617,10.171,5.618   c0.816,0.605,1.584,1.141,2.262,1.615c2.486,1.738,3.987,2.787,4.079,4.404C94.226,57.465,93.825,58.507,93.161,59.875z"/>
	<path d="M59.937,45.477c-9.064-4.201-11.986-3.713-16.828-2.904c-0.423,0.071-0.861,0.144-1.321,0.217   c-5.724,0.91-15.473,4.477-15.569,4.512l0.44,0.123c0.096-0.035,9.472-3.47,15.17-4.376c0.46-0.073,0.899-0.147,1.323-0.217   c4.955-0.828,7.684-1.284,16.674,2.883c5.684,2.634,13.205,10.643,21.749,23.161c0.064,0.094,0.406,0.521,0.406,0.521   s0.171,0.228,0.305,0.141c0.134-0.087-0.254-0.457-0.494-0.81C73.221,56.172,65.664,48.131,59.937,45.477z"/>
	<path d="M56.15,48.245c-10.938-4.895-23.799,0.746-23.926,0.804l0.428,0.128c0.126-0.056,12.56-5.54,23.391-0.692   c11.026,4.935,17.865,15.88,17.982,17.408l0.267,0.086C74.168,64.368,67.483,53.317,56.15,48.245z"/>
	<path d="M52.204,50.192c-2.689-1.178-6.484-1.003-9.195-0.649c-2.952,0.386-5.481,1.112-5.482,1.113l0.472,0.144   c0.092-0.027,9.05-2.581,14.099-0.367c5.181,2.271,11.056,8.851,12,11.78l0.426,0.112C63.566,59.352,57.443,52.489,52.204,50.192z"/>
</g>
<text x="0.0" y="117.5" font-size="5.0" font-weight="bold" font-family="Helvetica Neue, Helvetica, Arial-Unicode, Arial, Sans-serif" fill="#000000">Created by Antoine Taupin</text><text x="0.0" y="122.5" font-size="5.0" font-weight="bold" font-family="Helvetica Neue, Helvetica, Arial-Unicode, Arial, Sans-serif" fill="#000000">from the Noun Project</text></svg>