<svg xmlns="http://www.w3.org/2000/svg" xmlns:xlink="http://www.w3.org/1999/xlink" version="1.1" id="Layer_1" x="0px" y="0px" viewBox="5.0 -10.0 100.0 135.0" enable-background="new 0 0 100 100" xml:space="preserve" height="100px" width="100px">
<path d="M92.637,72.506C89.088,63.3,81.291,57.16,76.132,53.095l-0.837-0.661c-6.179-4.894-9.298-10.776-11.805-15.504  c-1.164-2.196-2.17-4.093-3.324-5.625c-2.661-3.536-7.338-6.546-11.465-9.201c-1.723-1.109-3.352-2.157-4.719-3.162  c-7.552-5.553-12.55-11.871-12.6-11.935L30.05,5.313L6.551,23.603l1.191,1.688c0.24,0.34,5.976,8.408,14.111,14.461  c1.483,1.104,3.175,2.209,4.966,3.378c3.844,2.509,8.2,5.352,10.425,8.318c0.96,1.278,1.906,3.057,3.001,5.115  c2.589,4.867,6.134,11.533,13.061,17.078c0.499,0.4,1.034,0.82,1.594,1.26c5.086,3.992,12.05,9.459,14.512,17.138l1.05,3.274  L93.159,73.86L92.637,72.506z M22.09,16.995c2.287,2.864,6.732,7.969,12.327,12.116c1.475,1.094,3.145,2.179,4.914,3.329  c3.719,2.417,7.934,5.156,10.032,7.948c0.904,1.203,1.816,2.921,2.873,4.909c2.565,4.829,6.078,11.441,13.001,16.964l0.602,0.479  c4.616,3.673,12.294,9.794,14.851,16.949l-2.83,2.675c-3.926-7.893-11.01-13.511-15.066-16.725  c-6.299-4.987-9.457-10.945-11.995-15.731c-1.15-2.169-2.143-4.042-3.262-5.528c-2.583-3.432-7.202-6.404-11.277-9.026  c-1.734-1.116-3.372-2.17-4.758-3.189c-6.205-4.562-11.027-10.559-12.63-12.664L22.09,16.995z M57.572,71.497  c-0.548-0.431-1.072-0.843-1.561-1.234c-6.229-4.987-9.398-10.944-11.944-15.731c-1.18-2.22-2.199-4.135-3.361-5.683  c-2.682-3.574-7.378-6.64-11.52-9.344c-1.734-1.132-3.372-2.201-4.748-3.226c-5.457-4.061-9.861-9.241-11.911-11.84l4.065-3.164  c1.713,2.261,6.656,8.403,13.2,13.215c1.458,1.072,3.133,2.15,4.906,3.291c3.872,2.492,8.259,5.315,10.533,8.336  c0.982,1.304,1.925,3.083,3.018,5.144c2.524,4.76,5.98,11.279,12.753,16.643c4.005,3.171,11.11,8.816,14.647,16.552L72.3,87.619  C68.815,80.322,62.162,75.099,57.572,71.497z M85.164,75.461c-3.646-7.603-11.087-13.541-15.73-17.237l-0.598-0.475  C62.85,52.973,59.79,47.216,57.333,42.59c-1.17-2.202-2.18-4.104-3.355-5.669c-2.711-3.609-7.382-6.643-11.502-9.321  c-1.692-1.099-3.289-2.138-4.622-3.125c-5.011-3.716-9.105-8.413-11.205-11.029l2.713-2.112c2.07,2.368,6.337,6.893,12.054,11.097  c1.476,1.085,3.159,2.168,4.941,3.314c3.822,2.459,8.152,5.246,10.349,8.164c0.948,1.258,1.88,3.016,2.958,5.049  c2.554,4.816,6.051,11.412,12.942,16.869l0.846,0.668c4.793,3.775,11.258,8.867,14.591,16.243L85.164,75.461z"/>
<text x="0.0" y="117.5" font-size="5.0" font-weight="bold" font-family="Helvetica Neue, Helvetica, Arial-Unicode, Arial, Sans-serif" fill="#000000">Created by Nathan Thomson</text><text x="0.0" y="122.5" font-size="5.0" font-weight="bold" font-family="Helvetica Neue, Helvetica, Arial-Unicode, Arial, Sans-serif" fill="#000000">from the Noun Project</text></svg>